<?xml version="1.0" encoding="UTF-8" standalone="no"?>
<svg xmlns="http://www.w3.org/2000/svg" version="1.1">
<g transform="scale(100.0, -100.0)">
  <g id="Circle.010">
    <path id="Circle.010_0" d="M 0.0000,1.0000 L 0.0980,0.9952 L 0.1951,0.9808 L 0.2903,0.9569 L 0.3827,0.9239 L 0.4714,0.8819 L 0.5556,0.8315 L 0.6344,0.7730 L 0.7071,0.7071 L 0.7730,0.6344 L 0.8315,0.5556 L 0.8819,0.4714 L 0.9239,0.3827 L 0.9569,0.2903 L 0.9808,0.1951 L 0.9952,0.0980 L 1.0000,0.0000 L 0.9952,-0.0980 L 0.9808,-0.1951 L 0.9569,-0.2903 L 0.9239,-0.3827 L 0.8819,-0.4714 L 0.8315,-0.5556 L 0.7730,-0.6344 L 0.7071,-0.7071 L 0.6344,-0.7730 L 0.5556,-0.8315 L 0.4714,-0.8819 L 0.3827,-0.9239 L 0.2903,-0.9569 L 0.1951,-0.9808 L 0.0980,-0.9952 L 0.0000,-1.0000 L -0.0980,-0.9952 L -0.1951,-0.9808 L -0.2903,-0.9569 L -0.3827,-0.9239 L -0.4714,-0.8819 L -0.5556,-0.8315 L -0.6344,-0.7730 L -0.7071,-0.7071 L -0.7730,-0.6344 L -0.8315,-0.5556 L -0.8819,-0.4714 L -0.9239,-0.3827 L -0.9569,-0.2903 L -0.9808,-0.1951 L -0.9952,-0.0980 L -1.0000,0.0000 L -0.9952,0.0980 L -0.9808,0.1951 L -0.9569,0.2903 L -0.9239,0.3827 L -0.8819,0.4714 L -0.8315,0.5556 L -0.7730,0.6344 L -0.7071,0.7071 L -0.6344,0.7730 L -0.5556,0.8315 L -0.4714,0.8819 L -0.3827,0.9239 L -0.2903,0.9569 L -0.1951,0.9808 L -0.0980,0.9952 Z" stroke="#000000" stroke-width="0.05000000074505806" fill="none" />
  </g>
  <g id="Circle.013">
    <path id="Circle.013_0" d="M 0.2828,0.5292 L 0.3333,0.4989 L 0.3806,0.4638 L 0.4243,0.4243 L 0.4638,0.3806 L 0.4989,0.3333 L 0.5292,0.2828 L 0.5543,0.2296 L 0.5742,0.1742 L 0.5885,0.1171 L 0.5971,0.0588 L 0.6000,0.0000 L 0.5971,-0.0588 L 0.5885,-0.1171 L 0.5742,-0.1742 L 0.5543,-0.2296 L 0.5292,-0.2828 L 0.4989,-0.3333 L 0.4638,-0.3806 L 0.4243,-0.4243 L 0.3806,-0.4638 L 0.3333,-0.4989 L 0.2828,-0.5292 L 0.2296,-0.5543 L 0.1742,-0.5742 L 0.1171,-0.5885 L 0.0588,-0.5971 L 0.0000,-0.6000 L -0.0588,-0.5971 L -0.1171,-0.5885 L -0.1742,-0.5742 L -0.2296,-0.5543 L -0.2828,-0.5292 L -0.3333,-0.4989 L -0.3806,-0.4638 L -0.4243,-0.4243 L -0.4638,-0.3806 L -0.4989,-0.3333 L -0.5292,-0.2828 L -0.5543,-0.2296 L -0.5742,-0.1742 L -0.5885,-0.1171 L -0.5971,-0.0588 L -0.6000,0.0000 L -0.5971,0.0588 L -0.5885,0.1171 L -0.5742,0.1742 L -0.5543,0.2296 L -0.5292,0.2828 L -0.4989,0.3333 L -0.4638,0.3806 L -0.4243,0.4243 L -0.3806,0.4638 L -0.3333,0.4989 L -0.2828,0.5292" stroke="#000000" stroke-width="0.05000000074505806" fill="none" />
  </g>
  <g id="Plane.011">
    <path id="Plane.011_0" d="M 0.0000,0.2598 L 0.0000,0.7985" stroke="#000000" stroke-width="0.05000000074505806" fill="none" />
  </g>
  <g id="Plane.010">
    <path id="Plane.010_0" d="M -0.3392,-0.3392 L 0.3392,-0.3392" stroke="#000000" stroke-width="0.05000000074505806" fill="none" />
  </g>
</g>
</svg>