<?xml version="1.0" encoding="UTF-8" standalone="no"?>
<svg xmlns="http://www.w3.org/2000/svg" version="1.1">
<g transform="scale(100.0, -100.0)">
  <g id="Circle.004">
    <path id="Circle.004_0" d="M -0.7055,0.3771 L -0.6652,0.4445 L -0.6184,0.5075 L -0.5657,0.5657 L -0.5075,0.6184 L -0.4445,0.6652 L -0.3771,0.7055 L -0.3061,0.7391 L -0.2322,0.7656 L -0.1561,0.7846 L -0.0784,0.7961 L 0.0000,0.8000 L 0.0784,0.7961 L 0.1561,0.7846 L 0.2322,0.7656 L 0.3061,0.7391 L 0.3771,0.7055 L 0.4445,0.6652 L 0.5075,0.6184 L 0.5657,0.5657 L 0.6184,0.5075 L 0.6652,0.4445 L 0.7055,0.3771" stroke="#000000" stroke-width="0.05000000074505806" fill="none" />
  </g>
  <g id="Plane.005">
    <path id="Plane.005_0" d="M -0.5656,-0.4525 L -0.5656,-0.5656 L 0.5656,-0.5656 L 0.5656,-0.4525" stroke="#000000" stroke-width="0.05000000074505806" fill="none" />
  </g>
  <g id="Plane.006">
    <path id="Plane.006_0" d="M 0.0000,0.3771 L 0.0000,-0.4525" stroke="#000000" stroke-width="0.05000000074505806" fill="none" />
  </g>
  <g id="Circle.003">
    <path id="Circle.003_0" d="M 0.0000,1.0000 L 0.0980,0.9952 L 0.1951,0.9808 L 0.2903,0.9569 L 0.3827,0.9239 L 0.4714,0.8819 L 0.5556,0.8315 L 0.6344,0.7730 L 0.7071,0.7071 L 0.7730,0.6344 L 0.8315,0.5556 L 0.8819,0.4714 L 0.9239,0.3827 L 0.9569,0.2903 L 0.9808,0.1951 L 0.9952,0.0980 L 1.0000,0.0000 L 0.9952,-0.0980 L 0.9808,-0.1951 L 0.9569,-0.2903 L 0.9239,-0.3827 L 0.8819,-0.4714 L 0.8315,-0.5556 L 0.7730,-0.6344 L 0.7071,-0.7071 L 0.6344,-0.7730 L 0.5556,-0.8315 L 0.4714,-0.8819 L 0.3827,-0.9239 L 0.2903,-0.9569 L 0.1951,-0.9808 L 0.0980,-0.9952 L 0.0000,-1.0000 L -0.0980,-0.9952 L -0.1951,-0.9808 L -0.2903,-0.9569 L -0.3827,-0.9239 L -0.4714,-0.8819 L -0.5556,-0.8315 L -0.6344,-0.7730 L -0.7071,-0.7071 L -0.7730,-0.6344 L -0.8315,-0.5556 L -0.8819,-0.4714 L -0.9239,-0.3827 L -0.9569,-0.2903 L -0.9808,-0.1951 L -0.9952,-0.0980 L -1.0000,0.0000 L -0.9952,0.0980 L -0.9808,0.1951 L -0.9569,0.2903 L -0.9239,0.3827 L -0.8819,0.4714 L -0.8315,0.5556 L -0.7730,0.6344 L -0.7071,0.7071 L -0.6344,0.7730 L -0.5556,0.8315 L -0.4714,0.8819 L -0.3827,0.9239 L -0.2903,0.9569 L -0.1951,0.9808 L -0.0980,0.9952 Z" stroke="#000000" stroke-width="0.05000000074505806" fill="none" />
  </g>
</g>
</svg>