<?xml version="1.0" encoding="UTF-8" standalone="no"?>
<svg xmlns="http://www.w3.org/2000/svg" version="1.1">
<g transform="scale(100.0, -100.0)">
  <g id="Circle.012">
    <path id="Circle.012_0" d="M 0.0000,1.0000 L 0.0980,0.9952 L 0.1951,0.9808 L 0.2903,0.9569 L 0.3827,0.9239 L 0.4714,0.8819 L 0.5556,0.8315 L 0.6344,0.7730 L 0.7071,0.7071 L 0.7730,0.6344 L 0.8315,0.5556 L 0.8819,0.4714 L 0.9239,0.3827 L 0.9569,0.2903 L 0.9808,0.1951 L 0.9952,0.0980 L 1.0000,0.0000 L 0.9952,-0.0980 L 0.9808,-0.1951 L 0.9569,-0.2903 L 0.9239,-0.3827 L 0.8819,-0.4714 L 0.8315,-0.5556 L 0.7730,-0.6344 L 0.7071,-0.7071 L 0.6344,-0.7730 L 0.5556,-0.8315 L 0.4714,-0.8819 L 0.3827,-0.9239 L 0.2903,-0.9569 L 0.1951,-0.9808 L 0.0980,-0.9952 L 0.0000,-1.0000 L -0.0980,-0.9952 L -0.1951,-0.9808 L -0.2903,-0.9569 L -0.3827,-0.9239 L -0.4714,-0.8819 L -0.5556,-0.8315 L -0.6344,-0.7730 L -0.7071,-0.7071 L -0.7730,-0.6344 L -0.8315,-0.5556 L -0.8819,-0.4714 L -0.9239,-0.3827 L -0.9569,-0.2903 L -0.9808,-0.1951 L -0.9952,-0.0980 L -1.0000,0.0000 L -0.9952,0.0980 L -0.9808,0.1951 L -0.9569,0.2903 L -0.9239,0.3827 L -0.8819,0.4714 L -0.8315,0.5556 L -0.7730,0.6344 L -0.7071,0.7071 L -0.6344,0.7730 L -0.5556,0.8315 L -0.4714,0.8819 L -0.3827,0.9239 L -0.2903,0.9569 L -0.1951,0.9808 L -0.0980,0.9952 Z" stroke="#000000" stroke-width="0.05000000074505806" fill="none" />
  </g>
  <g id="Plane.012">
    <path id="Plane.012_0" d="M 0.7580,0.4376 L 0.5806,0.3352" stroke="#000000" stroke-width="0.05000000074505806" fill="none" />
    <path id="Plane.012_1" d="M 0.7580,-0.4376 L 0.5806,-0.3352" stroke="#000000" stroke-width="0.05000000074505806" fill="none" />
    <path id="Plane.012_2" d="M 0.0000,-0.8753 L 0.0000,-0.6705" stroke="#000000" stroke-width="0.05000000074505806" fill="none" />
    <path id="Plane.012_3" d="M -0.7580,-0.4376 L -0.5806,-0.3352" stroke="#000000" stroke-width="0.05000000074505806" fill="none" />
    <path id="Plane.012_4" d="M -0.7580,0.4376 L -0.5806,0.3352" stroke="#000000" stroke-width="0.05000000074505806" fill="none" />
    <path id="Plane.012_5" d="M 0.0000,0.8753 L 0.0000,0.6705" stroke="#000000" stroke-width="0.05000000074505806" fill="none" />
  </g>
  <g id="Circle.015">
    <path id="Circle.015_0" d="M 0.0000,0.3000 L 0.0294,0.2986 L 0.0585,0.2942 L 0.0871,0.2871 L 0.1148,0.2772 L 0.1414,0.2646 L 0.1667,0.2494 L 0.1903,0.2319 L 0.2121,0.2121 L 0.2319,0.1903 L 0.2494,0.1667 L 0.2646,0.1414 L 0.2772,0.1148 L 0.2871,0.0871 L 0.2942,0.0585 L 0.2986,0.0294 L 0.3000,0.0000 L 0.2986,-0.0294 L 0.2942,-0.0585 L 0.2871,-0.0871 L 0.2772,-0.1148 L 0.2646,-0.1414 L 0.2494,-0.1667 L 0.2319,-0.1903 L 0.2121,-0.2121 L 0.1903,-0.2319 L 0.1667,-0.2494 L 0.1414,-0.2646 L 0.1148,-0.2772 L 0.0871,-0.2871 L 0.0585,-0.2942 L 0.0294,-0.2986 L 0.0000,-0.3000 L -0.0294,-0.2986 L -0.0585,-0.2942 L -0.0871,-0.2871 L -0.1148,-0.2772 L -0.1414,-0.2646 L -0.1667,-0.2494 L -0.1903,-0.2319 L -0.2121,-0.2121 L -0.2319,-0.1903 L -0.2494,-0.1667 L -0.2646,-0.1414 L -0.2772,-0.1148 L -0.2871,-0.0871 L -0.2942,-0.0585 L -0.2986,-0.0294 L -0.3000,0.0000 L -0.2986,0.0294 L -0.2942,0.0585 L -0.2871,0.0871 L -0.2772,0.1148 L -0.2646,0.1414 L -0.2494,0.1667 L -0.2319,0.1903 L -0.2121,0.2121 L -0.1903,0.2319 L -0.1667,0.2494 L -0.1414,0.2646 L -0.1148,0.2772 L -0.0871,0.2871 L -0.0585,0.2942 L -0.0294,0.2986 Z" stroke="#000000" stroke-width="0.05000000074505806" fill="none" />
  </g>
  <g id="Circle.017">
    <path id="Circle.017_0" d="M -0.5292,0.2828 L -0.4989,0.3333 L -0.4638,0.3806 L -0.4243,0.4243 L -0.3806,0.4638 L -0.3333,0.4989 L -0.2828,0.5292 L -0.2296,0.5543 L -0.1742,0.5742 L -0.1171,0.5885 L -0.0588,0.5971 L 0.0000,0.6000 L 0.0588,0.5971 L 0.1171,0.5885 L 0.1742,0.5742 L 0.2296,0.5543 L 0.2828,0.5292 L 0.3333,0.4989 L 0.3806,0.4638 L 0.4243,0.4243 L 0.4638,0.3806 L 0.4989,0.3333 L 0.5292,0.2828" stroke="#000000" stroke-width="0.05000000074505806" fill="none" />
  </g>
  <g id="Plane.013">
    <path id="Plane.013_0" d="M -0.4242,-0.3394 L -0.4242,-0.4242 L 0.4242,-0.4242 L 0.4242,-0.3394" stroke="#000000" stroke-width="0.05000000074505806" fill="none" />
  </g>
  <g id="Plane.014">
    <path id="Plane.014_0" d="M 0.0000,0.3000 L 0.0000,-0.3000" stroke="#000000" stroke-width="0.05000000074505806" fill="none" />
  </g>
</g>
</svg>